STARTFONT 2.1
FONT -kiedtl-chicagomono-medium-r-normal--18-180-75-75-c-90-iso10646-1
SIZE 18 75 75
FONTBOUNDINGBOX 9 18 0 -2

STARTPROPERTIES 18
FONTNAME_REGISTRY ""
FOUNDRY "kiedtl"
FAMILY_NAME "ChicagoMono"
WEIGHT_NAME "medium"
SLANT "r"
SETWIDTH_NAME "normal"
ADD_STYLE_NAME ""
PIXEL_SIZE 18
POINT_SIZE 180
RESOLUTION_X 75
RESOLUTION_Y 75
SPACING "c"
AVERAGE_WIDTH 90
CHARSET_REGISTRY "ISO10646"
CHARSET_ENCODING "1"
DESTINATION 1
FONT_ASCENT  16
FONT_DESCENT 2
ENDPROPERTIES

CHARS 114
STARTCHAR U+0020
ENCODING 32
SWIDTH 960 0
DWIDTH 9 0
BBX 9 18 0 -2
BITMAP
00
00
00
00
00
00
00
00
00
00
00
00
00
00
00
00
00
00
ENDCHAR
STARTCHAR U+0021
ENCODING 33
SWIDTH 960 0
DWIDTH 9 0
BBX 9 18 0 -2
BITMAP
00
00
00
00
18
18
18
18
18
18
18
18
00
18
18
00
00
00
ENDCHAR
STARTCHAR U+0022
ENCODING 34
SWIDTH 960 0
DWIDTH 9 0
BBX 9 18 0 -2
BITMAP
00
00
00
00
24
24
24
00
00
00
00
00
00
00
00
00
00
00
ENDCHAR
STARTCHAR U+0023
ENCODING 35
SWIDTH 960 0
DWIDTH 9 0
BBX 9 18 0 -2
BITMAP
00
00
00
00
36
36
36
7F
36
36
36
7F
36
36
36
00
00
00
ENDCHAR
STARTCHAR U+0024
ENCODING 36
SWIDTH 960 0
DWIDTH 9 0
BBX 9 18 0 -2
BITMAP
00
00
08
08
3E
63
60
60
60
3E
03
03
03
63
3E
08
08
00
ENDCHAR
STARTCHAR U+0025
ENCODING 37
SWIDTH 960 0
DWIDTH 9 0
BBX 9 18 0 -2
BITMAP
00
00
00
36
4A
4C
34
08
08
10
10
2C
32
52
4C
00
00
00
ENDCHAR
STARTCHAR U+0026
ENCODING 38
SWIDTH 960 0
DWIDTH 9 0
BBX 9 18 0 -2
BITMAP
00
00
00
00
3C
66
66
60
39
62
66
66
66
66
3C
00
00
00
ENDCHAR
STARTCHAR U+0027
ENCODING 39
SWIDTH 960 0
DWIDTH 9 0
BBX 9 18 0 -2
BITMAP
00
00
00
00
10
10
10
00
00
00
00
00
00
00
00
00
00
00
ENDCHAR
STARTCHAR U+0028
ENCODING 40
SWIDTH 960 0
DWIDTH 9 0
BBX 9 18 0 -2
BITMAP
00
00
06
08
18
18
18
18
18
18
18
18
18
18
18
08
06
00
ENDCHAR
STARTCHAR U+0029
ENCODING 41
SWIDTH 960 0
DWIDTH 9 0
BBX 9 18 0 -2
BITMAP
00
00
30
08
0C
0C
0C
0C
0C
0C
0C
0C
0C
0C
0C
08
30
00
ENDCHAR
STARTCHAR U+002a
ENCODING 42
SWIDTH 960 0
DWIDTH 9 0
BBX 9 18 0 -2
BITMAP
00
00
00
00
08
49
2A
1C
2A
49
08
00
00
00
00
00
00
00
ENDCHAR
STARTCHAR U+002b
ENCODING 43
SWIDTH 960 0
DWIDTH 9 0
BBX 9 18 0 -2
BITMAP
00
00
00
00
00
08
08
08
7F
08
08
08
00
00
00
00
00
00
ENDCHAR
STARTCHAR U+002c
ENCODING 44
SWIDTH 960 0
DWIDTH 9 0
BBX 9 18 0 -2
BITMAP
00
00
00
00
00
00
00
00
00
00
00
00
00
18
18
08
10
00
ENDCHAR
STARTCHAR U+002d
ENCODING 45
SWIDTH 960 0
DWIDTH 9 0
BBX 9 18 0 -2
BITMAP
00
00
00
00
00
00
00
00
7F
00
00
00
00
00
00
00
00
00
ENDCHAR
STARTCHAR U+002e
ENCODING 46
SWIDTH 960 0
DWIDTH 9 0
BBX 9 18 0 -2
BITMAP
00
00
00
00
00
00
00
00
00
00
00
00
00
18
18
00
00
00
ENDCHAR
STARTCHAR U+002f
ENCODING 47
SWIDTH 960 0
DWIDTH 9 0
BBX 9 18 0 -2
BITMAP
00
00
00
01
01
02
02
04
04
08
08
10
10
20
20
00
00
00
ENDCHAR
STARTCHAR U+0030
ENCODING 48
SWIDTH 960 0
DWIDTH 9 0
BBX 9 18 0 -2
BITMAP
00
00
00
00
3E
63
63
63
6B
6B
6B
63
63
63
3E
00
00
00
ENDCHAR
STARTCHAR U+0031
ENCODING 49
SWIDTH 960 0
DWIDTH 9 0
BBX 9 18 0 -2
BITMAP
00
00
00
00
18
38
18
18
18
18
18
18
18
18
18
00
00
00
ENDCHAR
STARTCHAR U+0032
ENCODING 50
SWIDTH 960 0
DWIDTH 9 0
BBX 9 18 0 -2
BITMAP
00
00
00
00
3E
43
03
03
03
06
0C
18
30
60
7F
00
00
00
ENDCHAR
STARTCHAR U+0033
ENCODING 51
SWIDTH 960 0
DWIDTH 9 0
BBX 9 18 0 -2
BITMAP
00
00
00
00
7F
06
0C
18
3E
03
03
03
03
42
3C
00
00
00
ENDCHAR
STARTCHAR U+0034
ENCODING 52
SWIDTH 960 0
DWIDTH 9 0
BBX 9 18 0 -2
BITMAP
00
00
00
00
06
0E
16
26
46
7F
06
06
06
06
06
00
00
00
ENDCHAR
STARTCHAR U+0035
ENCODING 53
SWIDTH 960 0
DWIDTH 9 0
BBX 9 18 0 -2
BITMAP
00
00
00
00
7F
60
60
7E
03
03
03
03
03
42
3C
00
00
00
ENDCHAR
STARTCHAR U+0036
ENCODING 54
SWIDTH 960 0
DWIDTH 9 0
BBX 9 18 0 -2
BITMAP
00
00
00
00
1E
30
60
7E
63
63
63
63
63
63
3E
00
00
00
ENDCHAR
STARTCHAR U+0037
ENCODING 55
SWIDTH 960 0
DWIDTH 9 0
BBX 9 18 0 -2
BITMAP
00
00
00
00
7E
06
06
06
0C
18
18
18
18
18
18
00
00
00
ENDCHAR
STARTCHAR U+0038
ENCODING 56
SWIDTH 960 0
DWIDTH 9 0
BBX 9 18 0 -2
BITMAP
00
00
00
00
3C
66
66
66
66
3C
66
66
66
66
3C
00
00
00
ENDCHAR
STARTCHAR U+0039
ENCODING 57
SWIDTH 960 0
DWIDTH 9 0
BBX 9 18 0 -2
BITMAP
00
00
00
00
3E
63
63
63
63
63
3F
03
06
0C
38
00
00
00
ENDCHAR
STARTCHAR U+003a
ENCODING 58
SWIDTH 960 0
DWIDTH 9 0
BBX 9 18 0 -2
BITMAP
00
00
00
00
00
00
00
0C
0C
00
00
00
00
0C
0C
00
00
00
ENDCHAR
STARTCHAR U+003b
ENCODING 59
SWIDTH 960 0
DWIDTH 9 0
BBX 9 18 0 -2
BITMAP
00
00
00
00
00
00
00
0C
0C
0C
00
00
00
0C
0C
04
08
00
ENDCHAR
STARTCHAR U+003c
ENCODING 60
SWIDTH 960 0
DWIDTH 9 0
BBX 9 18 0 -2
BITMAP
00
00
00
00
06
0C
18
30
60
30
18
0C
06
00
00
00
00
00
ENDCHAR
STARTCHAR U+003d
ENCODING 61
SWIDTH 960 0
DWIDTH 9 0
BBX 9 18 0 -2
BITMAP
00
00
00
00
00
00
00
7F
00
00
00
7F
00
00
00
00
00
00
ENDCHAR
STARTCHAR U+003e
ENCODING 62
SWIDTH 960 0
DWIDTH 9 0
BBX 9 18 0 -2
BITMAP
00
00
00
00
30
18
0C
06
03
06
0C
18
30
00
00
00
00
00
ENDCHAR
STARTCHAR U+003f
ENCODING 63
SWIDTH 960 0
DWIDTH 9 0
BBX 9 18 0 -2
BITMAP
00
00
00
00
3E
43
03
03
06
0C
18
18
00
18
18
00
00
00
ENDCHAR
STARTCHAR U+0040
ENCODING 64
SWIDTH 960 0
DWIDTH 9 0
BBX 9 18 0 -2
BITMAP
00
00
00
00
3E
41
41
4F
49
49
49
4F
40
41
3E
00
00
00
ENDCHAR
STARTCHAR U+0041
ENCODING 65
SWIDTH 960 0
DWIDTH 9 0
BBX 9 18 0 -2
BITMAP
00
00
00
00
3E
63
63
63
63
7F
63
63
63
63
63
00
00
00
ENDCHAR
STARTCHAR U+0042
ENCODING 66
SWIDTH 960 0
DWIDTH 9 0
BBX 9 18 0 -2
BITMAP
00
00
00
00
7E
63
63
63
63
7E
63
63
63
63
7E
00
00
00
ENDCHAR
STARTCHAR U+0043
ENCODING 67
SWIDTH 960 0
DWIDTH 9 0
BBX 9 18 0 -2
BITMAP
00
00
00
00
3E
61
60
60
60
60
60
60
60
61
3E
00
00
00
ENDCHAR
STARTCHAR U+0044
ENCODING 68
SWIDTH 960 0
DWIDTH 9 0
BBX 9 18 0 -2
BITMAP
00
00
00
00
7E
63
63
63
63
63
63
63
63
63
7E
00
00
00
ENDCHAR
STARTCHAR U+0045
ENCODING 69
SWIDTH 960 0
DWIDTH 9 0
BBX 9 18 0 -2
BITMAP
00
00
00
00
7F
60
60
60
60
7C
60
60
60
60
7F
00
00
00
ENDCHAR
STARTCHAR U+0046
ENCODING 70
SWIDTH 960 0
DWIDTH 9 0
BBX 9 18 0 -2
BITMAP
00
00
00
00
7F
60
60
60
60
7C
60
60
60
60
60
00
00
00
ENDCHAR
STARTCHAR U+0047
ENCODING 71
SWIDTH 960 0
DWIDTH 9 0
BBX 9 18 0 -2
BITMAP
00
00
00
00
3E
63
60
60
60
67
63
63
63
63
3E
00
00
00
ENDCHAR
STARTCHAR U+0048
ENCODING 72
SWIDTH 960 0
DWIDTH 9 0
BBX 9 18 0 -2
BITMAP
00
00
00
00
63
63
63
63
63
7F
63
63
63
63
63
00
00
00
ENDCHAR
STARTCHAR U+0049
ENCODING 73
SWIDTH 960 0
DWIDTH 9 0
BBX 9 18 0 -2
BITMAP
00
00
00
00
7E
18
18
18
18
18
18
18
18
18
7E
00
00
00
ENDCHAR
STARTCHAR U+004a
ENCODING 74
SWIDTH 960 0
DWIDTH 9 0
BBX 9 18 0 -2
BITMAP
00
00
00
00
03
03
03
03
03
03
63
63
63
63
3E
00
00
00
ENDCHAR
STARTCHAR U+004b
ENCODING 75
SWIDTH 960 0
DWIDTH 9 0
BBX 9 18 0 -2
BITMAP
00
00
00
00
61
63
66
6C
78
70
78
6C
66
63
61
00
00
00
ENDCHAR
STARTCHAR U+004c
ENCODING 76
SWIDTH 960 0
DWIDTH 9 0
BBX 9 18 0 -2
BITMAP
00
00
00
00
60
60
60
60
60
60
60
60
60
60
7F
00
00
00
ENDCHAR
STARTCHAR U+004d
ENCODING 77
SWIDTH 960 0
DWIDTH 9 0
BBX 9 18 0 -2
BITMAP
00
00
00
00
C3
C3
E7
FF
DB
DB
C3
C3
C3
C3
C3
00
00
00
ENDCHAR
STARTCHAR U+004e
ENCODING 78
SWIDTH 960 0
DWIDTH 9 0
BBX 9 18 0 -2
BITMAP
00
00
00
00
41
41
61
71
79
5D
4F
47
43
41
41
00
00
00
ENDCHAR
STARTCHAR U+004f
ENCODING 79
SWIDTH 960 0
DWIDTH 9 0
BBX 9 18 0 -2
BITMAP
00
00
00
00
3E
63
63
63
63
63
63
63
63
63
3E
00
00
00
ENDCHAR
STARTCHAR U+005
ENCODING 5
SWIDTH 960 0
DWIDTH 9 0
BBX 9 18 0 -2
BITMAP
00
00
00
00
00
00
00
00
00
00
00
00
00
00
00
00
00
00
ENDCHAR
STARTCHAR U+0050
ENCODING 80
SWIDTH 960 0
DWIDTH 9 0
BBX 9 18 0 -2
BITMAP
00
00
00
00
7E
63
63
63
63
7E
60
60
60
60
60
00
00
00
ENDCHAR
STARTCHAR U+0051
ENCODING 81
SWIDTH 960 0
DWIDTH 9 0
BBX 9 18 0 -2
BITMAP
00
00
00
00
3E
63
63
63
63
63
63
63
63
63
3E
02
03
00
ENDCHAR
STARTCHAR U+0052
ENCODING 82
SWIDTH 960 0
DWIDTH 9 0
BBX 9 18 0 -2
BITMAP
00
00
00
00
7E
63
63
63
63
7E
63
63
63
63
63
00
00
00
ENDCHAR
STARTCHAR U+0053
ENCODING 83
SWIDTH 960 0
DWIDTH 9 0
BBX 9 18 0 -2
BITMAP
00
00
00
00
3E
63
60
60
60
3E
03
03
03
63
3E
00
00
00
ENDCHAR
STARTCHAR U+0054
ENCODING 84
SWIDTH 960 0
DWIDTH 9 0
BBX 9 18 0 -2
BITMAP
00
00
00
00
FF
18
18
18
18
18
18
18
18
18
18
00
00
00
ENDCHAR
STARTCHAR U+0055
ENCODING 85
SWIDTH 960 0
DWIDTH 9 0
BBX 9 18 0 -2
BITMAP
00
00
00
00
63
63
63
63
63
63
63
63
63
63
3E
00
00
00
ENDCHAR
STARTCHAR U+0056
ENCODING 86
SWIDTH 960 0
DWIDTH 9 0
BBX 9 18 0 -2
BITMAP
00
00
00
00
63
63
63
63
63
63
63
63
63
66
7C
00
00
00
ENDCHAR
STARTCHAR U+0057
ENCODING 87
SWIDTH 960 0
DWIDTH 9 0
BBX 9 18 0 -2
BITMAP
00
00
00
00
DB
DB
DB
DB
DB
DB
DB
DB
DB
DE
FC
00
00
00
ENDCHAR
STARTCHAR U+0058
ENCODING 88
SWIDTH 960 0
DWIDTH 9 0
BBX 9 18 0 -2
BITMAP
00
00
00
00
63
63
63
63
63
3E
63
63
63
63
63
00
00
00
ENDCHAR
STARTCHAR U+0059
ENCODING 89
SWIDTH 960 0
DWIDTH 9 0
BBX 9 18 0 -2
BITMAP
00
00
00
00
66
66
66
66
66
3C
18
18
18
18
18
00
00
00
ENDCHAR
STARTCHAR U+005a
ENCODING 90
SWIDTH 960 0
DWIDTH 9 0
BBX 9 18 0 -2
BITMAP
00
00
00
00
7E
06
06
0E
1C
38
70
60
60
60
7E
00
00
00
ENDCHAR
STARTCHAR U+005b
ENCODING 91
SWIDTH 960 0
DWIDTH 9 0
BBX 9 18 0 -2
BITMAP
00
00
1E
18
18
18
18
18
18
18
18
18
18
18
18
18
1E
00
ENDCHAR
STARTCHAR U+005c
ENCODING 92
SWIDTH 960 0
DWIDTH 9 0
BBX 9 18 0 -2
BITMAP
00
00
00
40
40
20
20
10
10
08
08
04
04
02
02
00
00
00
ENDCHAR
STARTCHAR U+005d
ENCODING 93
SWIDTH 960 0
DWIDTH 9 0
BBX 9 18 0 -2
BITMAP
00
00
3C
0C
0C
0C
0C
0C
0C
0C
0C
0C
0C
0C
0C
0C
3C
00
ENDCHAR
STARTCHAR U+005e
ENCODING 94
SWIDTH 960 0
DWIDTH 9 0
BBX 9 18 0 -2
BITMAP
00
00
00
18
24
24
42
00
00
00
00
00
00
00
00
00
00
00
ENDCHAR
STARTCHAR U+005f
ENCODING 95
SWIDTH 960 0
DWIDTH 9 0
BBX 9 18 0 -2
BITMAP
00
00
00
00
00
00
00
00
00
00
00
00
00
00
FF
00
00
00
ENDCHAR
STARTCHAR U+0060
ENCODING 96
SWIDTH 960 0
DWIDTH 9 0
BBX 9 18 0 -2
BITMAP
00
00
00
00
80
C0
60
20
00
00
00
00
00
00
00
00
00
00
ENDCHAR
STARTCHAR U+0061
ENCODING 97
SWIDTH 960 0
DWIDTH 9 0
BBX 9 18 0 -2
BITMAP
00
00
00
00
00
00
00
3E
43
3F
63
63
63
63
3F
00
00
00
ENDCHAR
STARTCHAR U+0062
ENCODING 98
SWIDTH 960 0
DWIDTH 9 0
BBX 9 18 0 -2
BITMAP
00
00
00
00
00
60
60
7E
63
63
63
63
63
63
7E
00
00
00
ENDCHAR
STARTCHAR U+0063
ENCODING 99
SWIDTH 960 0
DWIDTH 9 0
BBX 9 18 0 -2
BITMAP
00
00
00
00
00
00
00
3E
61
60
60
60
60
61
3E
00
00
00
ENDCHAR
STARTCHAR U+0064
ENCODING 100
SWIDTH 960 0
DWIDTH 9 0
BBX 9 18 0 -2
BITMAP
00
00
00
00
00
03
03
3F
63
63
63
63
63
63
3F
00
00
00
ENDCHAR
STARTCHAR U+0065
ENCODING 101
SWIDTH 960 0
DWIDTH 9 0
BBX 9 18 0 -2
BITMAP
00
00
00
00
00
00
00
3E
63
63
63
7F
60
61
3E
00
00
00
ENDCHAR
STARTCHAR U+0066
ENCODING 102
SWIDTH 960 0
DWIDTH 9 0
BBX 9 18 0 -2
BITMAP
00
00
00
00
00
3E
61
61
60
60
78
60
60
60
60
00
00
00
ENDCHAR
STARTCHAR U+0067
ENCODING 103
SWIDTH 960 0
DWIDTH 9 0
BBX 9 18 0 -2
BITMAP
00
00
00
00
00
00
00
3E
63
63
63
63
63
63
3F
03
43
3E
ENDCHAR
STARTCHAR U+0068
ENCODING 104
SWIDTH 960 0
DWIDTH 9 0
BBX 9 18 0 -2
BITMAP
00
00
00
00
00
60
60
7E
63
63
63
63
63
63
63
00
00
00
ENDCHAR
STARTCHAR U+0069
ENCODING 105
SWIDTH 960 0
DWIDTH 9 0
BBX 9 18 0 -2
BITMAP
00
00
00
00
00
0C
00
1C
0C
0C
0C
0C
0C
0C
3F
00
00
00
ENDCHAR
STARTCHAR U+006a
ENCODING 106
SWIDTH 960 0
DWIDTH 9 0
BBX 9 18 0 -2
BITMAP
00
00
00
00
00
06
00
0E
06
06
06
06
06
06
06
46
3C
00
ENDCHAR
STARTCHAR U+006b
ENCODING 107
SWIDTH 960 0
DWIDTH 9 0
BBX 9 18 0 -2
BITMAP
00
00
00
00
00
60
60
66
6C
78
70
78
6C
66
63
00
00
00
ENDCHAR
STARTCHAR U+006c
ENCODING 108
SWIDTH 960 0
DWIDTH 9 0
BBX 9 18 0 -2
BITMAP
00
00
00
00
00
38
18
18
18
18
18
18
18
18
7E
00
00
00
ENDCHAR
STARTCHAR U+006d
ENCODING 109
SWIDTH 960 0
DWIDTH 9 0
BBX 9 18 0 -2
BITMAP
00
00
00
00
00
00
00
FE
DB
DB
DB
DB
DB
DB
DB
00
00
00
ENDCHAR
STARTCHAR U+006e
ENCODING 110
SWIDTH 960 0
DWIDTH 9 0
BBX 9 18 0 -2
BITMAP
00
00
00
00
00
00
00
7E
63
63
63
63
63
63
63
00
00
00
ENDCHAR
STARTCHAR U+006f
ENCODING 111
SWIDTH 960 0
DWIDTH 9 0
BBX 9 18 0 -2
BITMAP
00
00
00
00
00
00
00
3E
63
63
63
63
63
63
3E
00
00
00
ENDCHAR
STARTCHAR U+0070
ENCODING 112
SWIDTH 960 0
DWIDTH 9 0
BBX 9 18 0 -2
BITMAP
00
00
00
00
00
00
00
7E
63
63
63
63
63
63
7E
60
60
60
ENDCHAR
STARTCHAR U+0071
ENCODING 113
SWIDTH 960 0
DWIDTH 9 0
BBX 9 18 0 -2
BITMAP
00
00
00
00
00
00
00
3F
63
63
63
63
63
63
3F
03
03
03
ENDCHAR
STARTCHAR U+0072
ENCODING 114
SWIDTH 960 0
DWIDTH 9 0
BBX 9 18 0 -2
BITMAP
00
00
00
00
00
00
00
6F
70
60
60
60
60
60
60
00
00
00
ENDCHAR
STARTCHAR U+0073
ENCODING 115
SWIDTH 960 0
DWIDTH 9 0
BBX 9 18 0 -2
BITMAP
00
00
00
00
00
00
00
3E
63
60
3E
03
03
63
3E
00
00
00
ENDCHAR
STARTCHAR U+0074
ENCODING 116
SWIDTH 960 0
DWIDTH 9 0
BBX 9 18 0 -2
BITMAP
00
00
00
00
00
18
18
7E
18
18
18
18
18
18
0E
00
00
00
ENDCHAR
STARTCHAR U+0075
ENCODING 117
SWIDTH 960 0
DWIDTH 9 0
BBX 9 18 0 -2
BITMAP
00
00
00
00
00
00
00
63
63
63
63
63
63
63
3F
00
00
00
ENDCHAR
STARTCHAR U+0076
ENCODING 118
SWIDTH 960 0
DWIDTH 9 0
BBX 9 18 0 -2
BITMAP
00
00
00
00
00
00
00
63
63
63
63
63
63
66
7C
00
00
00
ENDCHAR
STARTCHAR U+0077
ENCODING 119
SWIDTH 960 0
DWIDTH 9 0
BBX 9 18 0 -2
BITMAP
00
00
00
00
00
00
00
DB
DB
DB
DB
DB
DB
DE
FC
00
00
00
ENDCHAR
STARTCHAR U+0078
ENCODING 120
SWIDTH 960 0
DWIDTH 9 0
BBX 9 18 0 -2
BITMAP
00
00
00
00
00
00
00
63
63
63
3E
63
63
63
63
00
00
00
ENDCHAR
STARTCHAR U+0079
ENCODING 121
SWIDTH 960 0
DWIDTH 9 0
BBX 9 18 0 -2
BITMAP
00
00
00
00
00
00
00
63
63
63
63
63
63
63
3F
03
43
3E
ENDCHAR
STARTCHAR U+007a
ENCODING 122
SWIDTH 960 0
DWIDTH 9 0
BBX 9 18 0 -2
BITMAP
00
00
00
00
00
00
00
7E
06
0C
18
30
60
60
7E
00
00
00
ENDCHAR
STARTCHAR U+007b
ENCODING 123
SWIDTH 960 0
DWIDTH 9 0
BBX 9 18 0 -2
BITMAP
00
00
0C
18
18
18
18
18
18
78
18
18
18
18
18
18
0C
00
ENDCHAR
STARTCHAR U+007c
ENCODING 124
SWIDTH 960 0
DWIDTH 9 0
BBX 9 18 0 -2
BITMAP
00
00
00
18
18
18
18
18
18
18
18
18
18
18
18
18
00
00
ENDCHAR
STARTCHAR U+007d
ENCODING 125
SWIDTH 960 0
DWIDTH 9 0
BBX 9 18 0 -2
BITMAP
00
00
18
0C
0C
0C
0C
0C
0C
0F
0C
0C
0C
0C
0C
0C
18
00
ENDCHAR
STARTCHAR U+007e
ENCODING 126
SWIDTH 960 0
DWIDTH 9 0
BBX 9 18 0 -2
BITMAP
00
00
00
00
71
FF
8E
00
00
00
00
00
00
00
00
00
00
00
ENDCHAR
STARTCHAR U+0097
ENCODING 151
SWIDTH 960 0
DWIDTH 9 0
BBX 9 18 0 -2
BITMAP
00
00
00
00
00
00
00
00
00
00
00
00
00
00
00
00
00
00
ENDCHAR
STARTCHAR U+00FE
ENCODING 254
SWIDTH 960 0
DWIDTH 9 0
BBX 9 18 0 -2
BITMAP
00
00
00
00
60
60
60
7E
63
63
63
63
63
63
7E
60
60
60
ENDCHAR
STARTCHAR U+00a1
ENCODING 161
SWIDTH 960 0
DWIDTH 9 0
BBX 9 18 0 -2
BITMAP
00
00
00
00
00
00
18
18
00
18
18
18
18
18
18
18
18
18
ENDCHAR
STARTCHAR U+00a3
ENCODING 163
SWIDTH 960 0
DWIDTH 9 0
BBX 9 18 0 -2
BITMAP
00
00
00
00
1E
31
30
30
30
78
30
30
30
31
7E
00
00
00
ENDCHAR
STARTCHAR U+00a4
ENCODING 164
SWIDTH 960 0
DWIDTH 9 0
BBX 9 18 0 -2
BITMAP
00
00
00
00
00
00
00
5D
22
41
41
41
22
5D
00
00
00
00
ENDCHAR
STARTCHAR U+00a5
ENCODING 165
SWIDTH 960 0
DWIDTH 9 0
BBX 9 18 0 -2
BITMAP
00
00
00
00
66
66
66
E7
3C
FF
18
18
18
18
18
00
00
00
ENDCHAR
STARTCHAR U+00a6
ENCODING 166
SWIDTH 960 0
DWIDTH 9 0
BBX 9 18 0 -2
BITMAP
00
00
00
00
18
18
18
18
18
00
18
18
18
18
18
00
00
00
ENDCHAR
STARTCHAR U+00aa
ENCODING 170
SWIDTH 960 0
DWIDTH 9 0
BBX 9 18 0 -2
BITMAP
00
00
00
00
00
00
3E
22
22
22
22
22
3E
00
00
00
00
00
ENDCHAR
STARTCHAR U+00b7
ENCODING 183
SWIDTH 960 0
DWIDTH 9 0
BBX 9 18 0 -2
BITMAP
00
00
00
00
00
00
00
00
18
18
00
00
00
00
00
00
00
00
ENDCHAR
STARTCHAR U+00c0
ENCODING 192
SWIDTH 960 0
DWIDTH 9 0
BBX 9 18 0 -2
BITMAP
00
30
08
00
3E
63
63
63
63
7F
63
63
63
63
63
00
00
00
ENDCHAR
STARTCHAR U+00de
ENCODING 222
SWIDTH 960 0
DWIDTH 9 0
BBX 9 18 0 -2
BITMAP
00
00
00
00
60
60
7E
63
63
63
63
7E
60
60
60
00
00
00
ENDCHAR
STARTCHAR U+00e8
ENCODING 232
SWIDTH 960 0
DWIDTH 9 0
BBX 9 18 0 -2
BITMAP
00
00
00
30
38
08
00
3E
63
63
63
7F
60
61
3E
00
00
00
ENDCHAR
STARTCHAR U+00eb
ENCODING 235
SWIDTH 960 0
DWIDTH 9 0
BBX 9 18 0 -2
BITMAP
00
00
00
00
36
36
00
3E
63
63
63
7F
60
61
3E
00
00
00
ENDCHAR
STARTCHAR U+e0005
ENCODING 917509
SWIDTH 960 0
DWIDTH 9 0
BBX 9 18 0 -2
BITMAP
00
00
00
00
00
00
00
00
00
00
00
00
00
00
00
00
00
00
ENDCHAR
STARTCHAR U+e005
ENCODING 57349
SWIDTH 960 0
DWIDTH 9 0
BBX 9 18 0 -2
BITMAP
00
00
00
00
06
0C
08
76
FF
FF
FC
FC
FF
7F
36
00
00
00
ENDCHAR
STARTCHAR U+e006
ENCODING 57350
SWIDTH 960 0
DWIDTH 9 0
BBX 9 18 0 -2
BITMAP
00
00
00
00
00
00
00
00
00
00
00
00
00
00
00
00
00
00
ENDCHAR
STARTCHAR U+e00b
ENCODING 57355
SWIDTH 960 0
DWIDTH 9 0
BBX 9 18 0 -2
BITMAP
7E
81
81
81
81
81
81
7E
00
00
00
00
00
00
00
00
00
00
ENDCHAR
STARTCHAR U+e00c
ENCODING 57356
SWIDTH 960 0
DWIDTH 9 0
BBX 9 18 0 -2
BITMAP
7E
91
91
91
9F
81
81
7E
00
00
00
00
00
00
00
00
00
00
ENDCHAR
ENDFONT
